<svg xmlns="http://www.w3.org/2000/svg" width="56.549" height="43.386" viewBox="0 0 56.549 43.386">
  <g>
    <path fill="rgb(189,189,189)" fill-rule="evenodd" d="M52.94319757.49671215S33.3580054 20.29026218 33.3584409 20.2900421c-.00065324.00066023-.00108873.00121042-.00108873.00121042l-5.59485154 5.43445347L2.8003109.49627199C3.43906616.18739496 4.14510465 0 4.89926482 0h45.94421672"/>
    <path fill="rgb(189,189,189)" fill-rule="evenodd" d="M56.0583813 2.83106119L37.62810916 21.45765677l18.4296189 18.6269257c.30560525-.64559375.4910152-1.35919107.4910152-2.12142524V4.95171616v-.92844678s-.18497446-.54683452-.49036196-1.1922082z"/>
    <path fill="rgb(189,189,189)" fill-rule="evenodd" d="M18.92085185 21.4574367L.49057972 40.08403227C.1851922 39.4386586 0 38.72495125 0 37.96315723V4.95171616c0-.76223417.18540996-1.4758315.4910152-2.12142524l18.42983665 18.62714577z"/>
    <path fill="rgb(189,189,189)" fill-rule="evenodd" d="M34.51281656 24.2625238l-5.59561365 5.4351137c-.31899658.32241174-.73684943.4836176-1.15459341.4836176-.41774398 0-.8357057-.16120586-1.1545934-.4836176l-5.37786856-5.43533378L2.79954879 42.88900935c.63886413.30909712 1.34533812.49671215 2.09971603.49671215h45.94421672c.75416016 0 1.46019866-.18739495 2.09895392-.496272l-18.4296189-18.6269257z"/>
  </g>
</svg>
